:SAMPLES-PER-SECOND 30
:FULLY-SPECIFIED
:DEGREES
587
root  12.4566 33.5695 -34.2428 16.2689 -53.6677 -12.0983
RightUpLeg  -23.4566 -4.67004 6.4923
RightLeg  17.6027 -3.37563 -0.836635
RightFoot  9.11905 0.0866883 -0.529838
RightToes  -23.8636 -0.104027 -0.207137
Spine  -3.5464 -0.401362 3.38426
Spine1  -7.0074 -0.498622 6.87867
HEad  -64.4124 3.3454 6.56082
LeftShoulder1  -1.94126e-019 -3.10601e-018 -2.51263e-017
LeftArm  -73.6104 0.306951 -13.4296
LeftForeArm  168.679 -65.4661 -158.231
LeftHand  -0.533481 3.41991 31.1005
RightShoulder  -4.96962e-017 0 -2.36833e-017
RightArm  -91.0965 6.40606 -4.89706
RightForeArm  168.192 78.7242 132.364
RightHand  0.423618 -6.42239 -43.6874
LeftUpLeg  -3.40937 0.891248 11.6066
LeftLeg  41.8121 12.604 9.71294
LeftFoot  7.14879 -0.123833 2.14378
LeftToes  -63.4959 1.87998e-006 4.79886e-008
588
root  11.1804 33.8246 -33.7257 14.9381 -52.7779 -11.7137
RightUpLeg  -19.5745 -5.54053 6.6741
RightLeg  16.4691 -3.45868 -0.784487
RightFoot  7.17181 0.0611183 -0.418078
RightToes  -23.3162 -0.100706 -0.202936
Spine  -3.30644 -0.469303 3.30655
Spine1  -6.52989 -0.679916 6.76183
HEad  -64.4749 2.78577 6.66655
LeftShoulder1  -1.94126e-019 -3.10601e-018 -2.51263e-017
LeftArm  -73.0935 -0.217603 -13.675
LeftForeArm  172.008 -64.5113 -159.46
LeftHand  -0.622741 3.11198 31.3603
RightShoulder  -4.96962e-017 0 -2.36833e-017
RightArm  -90.9304 4.56722 -4.91022
RightForeArm  173.806 77.8039 137.251
RightHand  0.329067 -6.18226 -43.7701
LeftUpLeg  -7.96911 1.81536 11.8543
LeftLeg  52.5553 12.0208 13.406
LeftFoot  15.9587 -0.715998 5.26619
LeftToes  -46.117 1.87998e-006 4.79886e-008
589
root  10.0745 34.0558 -33.1816 13.7463 -52.3618 -10.8868
RightUpLeg  -16.3713 -5.97943 6.36225
RightLeg  15.2435 -3.57417 -0.730254
RightFoot  5.8066 0.045608 -0.341942
RightToes  -23.0115 -0.098875 -0.200584
Spine  -3.14884 -0.392104 3.08745
Spine1  -6.22066 -0.59053 6.35048
HEad  -64.6158 2.28446 6.72222
LeftShoulder1  -1.94126e-019 -3.10601e-018 -2.51263e-017
LeftArm  -72.8855 -0.759619 -13.3717
LeftForeArm  174.264 -63.8082 -160.295
LeftHand  -0.728077 2.73852 31.4697
RightShoulder  -4.96962e-017 0 -2.36833e-017
RightArm  -91.175 3.39724 -5.18141
RightForeArm  176.61 77.2984 139.531
RightHand  0.230052 -5.93107 -43.8993
LeftUpLeg  -12.6857 3.22513 11.0349
LeftLeg  60.5792 11.6355 17.1773
LeftFoot  15.2358 -0.759246 5.83379
LeftToes  -25.8205 1.87998e-006 4.79886e-008
590
root  9.05818 34.2912 -32.618 12.2542 -52.8973 -9.38583
RightUpLeg  -13.1135 -5.31988 5.4669
RightLeg  13.198 -4.02261 -0.672678
RightFoot  4.83838 0.0364676 -0.30456
RightToes  -21.9869 -0.0928097 -0.192602
Spine  -3.02234 -0.187137 2.63223
Spine1  -5.97208 -0.241171 5.4737
HEad  -64.3364 2.40817 6.7618
LeftShoulder1  -1.94126e-019 -3.10601e-018 -2.51263e-017
LeftArm  -72.7485 -0.557639 -12.4458
LeftForeArm  175.716 -63.378 -160.796
LeftHand  -0.775925 2.5878 31.7173
RightShoulder  -4.96962e-017 0 -2.36833e-017
RightArm  -91.4371 3.48192 -5.26923
RightForeArm  178.322 76.8074 141.364
RightHand  0.254592 -5.98466 -44.3424
LeftUpLeg  -16.4163 5.60463 9.26561
LeftLeg  63.8313 10.0315 16.8706
LeftFoot  10.6639 -0.348093 3.88998
LeftToes  -22.4491 1.87998e-006 4.79886e-008
591
root  8.11027 34.4979 -32.0769 11.3343 -53.9267 -8.11209
RightUpLeg  -10.0516 -3.02677 4.71176
RightLeg  10.5084 -5.46294 -0.651085
RightFoot  3.91966 0.0302886 -0.320531
RightToes  -19.1698 -0.0768793 -0.170114
Spine  -3.01323 0.190151 2.26724
Spine1  -5.95909 0.451196 4.75795
HEad  -63.9325 2.4301 6.62415
LeftShoulder1  -1.94126e-019 -3.10601e-018 -2.51263e-017
LeftArm  -72.707 -0.128727 -11.6402
LeftForeArm  176.663 -63.0182 -161.177
LeftHand  -0.818154 2.46426 32.0141
RightShoulder  -4.96962e-017 0 -2.36833e-017
RightArm  -91.8098 4.17695 -5.80036
RightForeArm  178.574 76.6467 141.87
RightHand  0.269855 -6.02024 -44.4634
LeftUpLeg  -19.9603 8.63694 7.2262
LeftLeg  63.7723 9.1402 15.423
LeftFoot  9.5656 -0.251549 3.16733
LeftToes  -22.381 1.87998e-006 4.79886e-008
592
root  7.21305 34.6516 -31.52 10.601 -54.372 -6.97858
RightUpLeg  -7.15299 -2.42797 4.08225
RightLeg  7.85875 -5.71294 -0.414404
RightFoot  3.14689 0.0223715 -0.250538
RightToes  -18.1915 -0.0716082 -0.162125
Spine  -3.03 0.441646 1.93453
Spine1  -5.99707 0.880877 4.1061
HEad  -63.8035 2.16606 6.53882
LeftShoulder1  -1.94126e-019 -3.10601e-018 -2.51263e-017
LeftArm  -72.9765 -0.160664 -10.9409
LeftForeArm  176.988 -62.7086 -161.451
LeftHand  -0.834763 2.41004 32.065
RightShoulder  -4.96962e-017 0 -2.36833e-017
RightArm  -92.2762 4.81168 -6.40898
RightForeArm  178.201 76.7071 141.62
RightHand  0.262686 -6.00325 -44.4237
LeftUpLeg  -23.3153 10.5293 4.94096
LeftLeg  61.32 9.87449 15.1301
LeftFoot  7.47656 -0.151797 2.4845
LeftToes  -21.9631 1.87998e-006 4.79886e-008
593
root  6.35317 34.7406 -30.8888 9.34137 -54.2129 -5.41833
RightUpLeg  -4.30099 -4.29976 3.02797
RightLeg  5.70099 -4.11243 -0.143223
RightFoot  2.31501 0.0113703 -0.102041
RightToes  -19.2299 -0.0702894 -0.160943
Spine  -2.95924 0.542412 1.49897
Spine1  -5.85976 0.994361 3.28325
HEad  -63.9952 1.72968 6.50414
LeftShoulder1  -1.94126e-019 -3.10601e-018 -2.51263e-017
LeftArm  -73.367 -0.625388 -10.4582
LeftForeArm  176.73 -62.5342 -161.563
LeftHand  -0.803073 2.54969 32.3621
RightShoulder  -4.96962e-017 0 -2.36833e-017
RightArm  -92.9633 5.2948 -7.03329
RightForeArm  178.164 76.8384 141.215
RightHand  0.235659 -5.93443 -44.5414
LeftUpLeg  -25.7674 10.7723 2.35496
LeftLeg  56.1545 11.9946 15.1293
LeftFoot  5.26705 -0.0782141 1.8619
LeftToes  -19.4605 1.87998e-006 4.79886e-008
594
root  5.52649 34.7377 -30.2783 9.14984 -53.9847 -4.5618
RightUpLeg  -2.73533 -4.71448 2.42782
RightLeg  5.07393 -3.97097 -0.0948697
RightFoot  0.700353 0.00339571 0.0209558
RightToes  -19.3988 -0.0701598 -0.162554
Spine  -3.0843 0.637546 1.19597
Spine1  -6.11473 1.09418 2.88357
HEad  -64.3497 1.25111 6.39608
LeftShoulder1  -1.94126e-019 -3.10601e-018 -2.51263e-017
LeftArm  -73.8224 -1.16803 -10.1859
LeftForeArm  176.103 -62.3208 -161.665
LeftHand  -0.783386 2.6472 32.6867
RightShoulder  -4.96962e-017 0 -2.36833e-017
RightArm  -93.8004 6.01974 -7.64154
RightForeArm  177.739 77.1294 140.245
RightHand  0.23438 -5.92443 -44.9639
LeftUpLeg  -27.8416 10.3903 0.419838
LeftLeg  48.291 14.5591 13.9187
LeftFoot  5.42973 -0.0858394 1.97166
LeftToes  -20.9186 1.87998e-006 4.79886e-008
595
root  4.67611 34.6763 -29.6274 9.27228 -54.0284 -4.0065
RightUpLeg  -1.23673 -4.10986 2.02086
RightLeg  4.53643 -4.55147 -0.0661938
RightFoot  -0.820646 -0.00321873 0.145577
RightToes  -18.7811 -0.0711407 -0.165781
Spine  -3.24934 0.771558 0.9212
Spine1  -6.45085 1.27048 2.5112
HEad  -64.82 1.0059 6.4144
LeftShoulder1  -1.94126e-019 -3.10601e-018 -2.51263e-017
LeftArm  -74.3479 -1.83571 -9.85506
LeftForeArm  175.435 -62.083 -161.777
LeftHand  -0.77107 2.69844 32.7859
RightShoulder  -4.96962e-017 0 -2.36833e-017
RightArm  -94.779 7.04314 -7.71112
RightForeArm  177.561 77.1317 140.205
RightHand  0.279108 -6.0331 -44.9914
LeftUpLeg  -28.574 9.44188 -0.861766
LeftLeg  37.4831 16.0172 10.4603
LeftFoot  6.28957 -0.108525 2.13665
LeftToes  -21.0782 1.87998e-006 4.79886e-008
596
root  3.80619 34.5564 -28.9151 9.5983 -54.1622 -3.60837
RightUpLeg  0.199894 -3.56611 1.61642
RightLeg  4.23919 -4.86876 -0.0456387
RightFoot  -1.92216 -0.00551098 0.251673
RightToes  -18.7396 -0.0731534 -0.169445
Spine  -3.43506 0.913536 0.708709
Spine1  -6.82662 1.45571 2.17146
HEad  -65.4308 0.860329 6.31568
LeftShoulder1  -1.94126e-019 -3.10601e-018 -2.51263e-017
LeftArm  -74.9484 -2.60133 -9.49764
LeftForeArm  175.128 -61.9157 -161.871
LeftHand  -0.773808 2.70076 32.9259
RightShoulder  -4.96962e-017 0 -2.36833e-017
RightArm  -95.9288 8.10703 -7.51807
RightForeArm  177.701 76.8872 140.988
RightHand  0.377157 -6.26598 -45.2443
LeftUpLeg  -28.0377 7.41781 -1.49332
LeftLeg  24.3852 15.5585 5.78491
LeftFoot  7.25333 -0.123662 2.11243
LeftToes  -22.5316 1.87998e-006 4.79886e-008
597
root  2.89353 34.4099 -28.1105 9.272 -54.3957 -2.60913
RightUpLeg  1.64046 -3.51076 0.699338
RightLeg  4.35285 -4.84574 -0.0550088
RightFoot  -3.31035 -0.00556853 0.382569
RightToes  -19.4483 -0.0761194 -0.172371
Spine  -3.65561 1.06361 0.375353
Spine1  -7.26846 1.67167 1.49579
HEad  -65.8412 0.670903 6.33851
LeftShoulder1  -1.94126e-019 -3.10601e-018 -2.51263e-017
LeftArm  -75.1925 -3.66428 -9.33796
LeftForeArm  175.713 -62.0315 -161.844
LeftHand  -0.777151 2.7083 33.1536
RightShoulder  -4.96962e-017 0 -2.36833e-017
RightArm  -97.0605 9.53277 -6.91948
RightForeArm  -179.942 76.2101 143.328
RightHand  0.398025 -6.29828 -45.9656
LeftUpLeg  -26.7589 2.95884 -1.42042
LeftLeg  12.7885 15.0779 2.38593
LeftFoot  10.5657 -0.246999 2.83233
LeftToes  -22.0935 1.87998e-006 4.79886e-008
598
root  1.92871 34.2237 -27.2029 8.02197 -54.9865 -0.955902
RightUpLeg  3.12763 -2.55151 -0.634241
RightLeg  5.3776 -5.46988 -0.159741
RightFoot  -5.04811 0.001624 0.61406
RightToes  -19.7302 -0.07996 -0.17465
Spine  -3.86606 1.29225 -0.0287749
Spine1  -7.67686 2.06521 0.3867
HEad  -65.6929 0.439432 6.42943
LeftShoulder1  -1.94126e-019 -3.10601e-018 -2.51263e-017
LeftArm  -75.0859 -5.11018 -9.22722
LeftForeArm  175.901 -62.4716 -161.541
LeftHand  -0.81759 2.5897 33.3825
RightShoulder  -4.96962e-017 0 -2.36833e-017
RightArm  -97.972 11.4415 -6.11689
RightForeArm  -176.416 75.0636 146.708
RightHand  0.452548 -6.41741 -46.3463
LeftUpLeg  -25.3109 -4.08345 -0.504482
LeftLeg  6.41609 16.1922 0.762143
LeftFoot  12.2319 -0.361582 3.53511
LeftToes  -18.2069 1.87998e-006 4.79886e-008
599
root  0.946481 33.9334 -26.1984 5.68384 -56.0574 1.50922
RightUpLeg  2.86786 -1.56438 -2.60994
RightLeg  10.8702 -5.72861 -0.719353
RightFoot  -8.59275 0.0340934 1.03053
RightToes  -20.9944 -0.0870712 -0.184769
Spine  -3.98518 1.5901 -0.723052
Spine1  -7.92483 2.64521 -0.985591
HEad  -65.4032 0.395036 6.3132
LeftShoulder1  -1.94126e-019 -3.10601e-018 -2.51263e-017
LeftArm  -75.0401 -6.95301 -8.89264
LeftForeArm  175.641 -63.2401 -160.934
LeftHand  -0.83554 2.49256 32.9796
RightShoulder  -4.96962e-017 0 -2.36833e-017
RightArm  -98.7015 13.9222 -5.33309
RightForeArm  -173.498 73.7833 149.771
RightHand  0.531949 -6.60559 -46.3141
LeftUpLeg  -24.944 -9.80551 -0.739699
LeftLeg  8.1462 15.8805 1.22278
LeftFoot  16.9506 -0.689428 4.78582
LeftToes  -15.3913 1.87998e-006 4.79886e-008
600
root  0.029676 33.6306 -25.1834 1.95389 -56.8691 5.13052
RightUpLeg  1.49562 -2.39938 -5.49895
RightLeg  19.0545 -5.20364 -1.42904
RightFoot  -11.4293 0.0690369 1.26364
RightToes  -24.7976 -0.109786 -0.214233
Spine  -3.88248 1.75892 -1.65152
Spine1  -7.74062 2.94531 -2.73298
HEad  -66.0812 0.440395 6.04363
LeftShoulder1  -1.94126e-019 -3.10601e-018 -2.51263e-017
LeftArm  -74.9294 -8.90399 -8.56439
LeftForeArm  175.003 -64.3118 -160.009
LeftHand  -0.836264 2.45848 32.6352
RightShoulder  -4.96962e-017 0 -2.36833e-017
RightArm  -99.2068 16.7923 -4.39008
RightForeArm  -170.486 71.9665 153.248
RightHand  0.529054 -6.60717 -46.0536
LeftUpLeg  -26.3017 -11.133 -3.18863
LeftLeg  16.5074 17.3389 3.87926
LeftFoot  14.1672 -0.54316 4.53042
LeftToes  -10.2741 1.87998e-006 4.79886e-008
